<svg id="Layer_1" height="512" viewBox="0 0 128 128" width="512" xmlns="http://www.w3.org/2000/svg" data-name="Layer 1"><path d="m118.25 65.087v-10.333a1.736 1.736 0 0 0 -.44-1.15c-.007-.009-.01-.023-.018-.031l-19.5-21.333a1.751 1.751 0 0 0 -1.716-.517l-85.5 21.333c-.013 0-.022.012-.034.016a1.745 1.745 0 0 0 -1.292 1.682v10.333a1.75 1.75 0 0 0 1.75 1.75h1.561a8.75 8.75 0 0 0 .331 3.952 7.746 7.746 0 0 0 -2.317 10.9 1.746 1.746 0 0 0 -1.325 1.694c0 7.139 5.421 12.946 12.083 12.946h84.334c6.662 0 12.083-5.808 12.083-12.946a1.746 1.746 0 0 0 -1.325-1.692 7.735 7.735 0 0 0 1.325-4.338 7.823 7.823 0 0 0 -3.5-6.466 8.931 8.931 0 0 0 .039-4.05h1.711a1.75 1.75 0 0 0 1.75-1.75zm-5.721-12.087h-86.787l70.67-17.633zm-99.279 10.337v-6.837h101.5v6.833zm67.779 22.163-9.229-18.456h18.457zm-13.245-18.663 3.291 6.582c-4.837 1.3-9.5.738-17.217-1.93-9.033-3.122-14.293-1.475-19.38.118a30.093 30.093 0 0 1 -9.211 1.813c-3.983.044-6.779-.879-8.029-2.667a4.973 4.973 0 0 1 -.623-3.916zm-52.568 6.928c1.631 1.643 4.613 3.214 10.088 3.155a33.351 33.351 0 0 0 10.22-1.973c4.962-1.554 9.247-2.9 17.189-.15 5.444 1.882 9.611 2.8 13.382 2.8a22.486 22.486 0 0 0 6.567-1l2.52 5.039h-57.653a4.272 4.272 0 0 1 -2.313-7.868zm90.951 19.065h-84.334c-4.189 0-7.688-3.321-8.436-7.7h63.536l2.531 5.07a1.75 1.75 0 0 0 3.131 0l2.531-5.062h29.474c-.746 4.371-4.244 7.692-8.433 7.692zm8.583-15.476a4.285 4.285 0 0 1 -4.279 4.28h-23.595l3.717-7.434a19.847 19.847 0 0 1 6.132 2.919l.2.143a10.616 10.616 0 0 0 6.32 2.041 12.688 12.688 0 0 0 8.242-3.146 11.325 11.325 0 0 0 1.8-2.013 4.3 4.3 0 0 1 1.463 3.21zm-5.586-3.816c-2.556 2.266-6.872 3.3-10.183.894l-.233-.168a23.3 23.3 0 0 0 -6.562-3.249l2.088-4.176h16.882c1.29 3.398-1.151 5.953-1.992 6.699z"/></svg>